<svg width="24" height="24" viewBox="0 0 24 24" fill="none" xmlns="http://www.w3.org/2000/svg">
  <rect width="24" height="24" fill="#4F46E5"/>
  <path d="M9.5 7C7.01472 7 5 9.01472 5 11.5C5 13.9853 7.01472 16 9.5 16C11.9853 16 14 13.9853 14 11.5C14 9.01472 11.9853 7 9.5 7ZM9.5 8.5C11.1569 8.5 12.5 9.84315 12.5 11.5C12.5 13.1569 11.1569 14.5 9.5 14.5C7.84315 14.5 6.5 13.1569 6.5 11.5C6.5 9.84315 7.84315 8.5 9.5 8.5ZM17.5 16L15.375 13.875L16.625 12.625L18.75 14.75L17.5 16Z" fill="white"/>
</svg>
